<svg width="16" height="16" viewBox="0 0 16 16" fill="none" xmlns="http://www.w3.org/2000/svg">
<g clip-path="url(#clip0_68411_2854)">
<path fill-rule="evenodd" clip-rule="evenodd" d="M1.33325 8.00016C1.33325 4.32016 4.31992 1.3335 7.99992 1.3335C11.6799 1.3335 14.6666 4.32016 14.6666 8.00016C14.6666 11.6802 11.6799 14.6668 7.99992 14.6668C4.31992 14.6668 1.33325 11.6802 1.33325 8.00016ZM7.33323 5.33366C7.33323 4.96699 7.63323 4.66699 7.9999 4.66699C8.36657 4.66699 8.66656 4.96699 8.66656 5.33366V7.33366H10.6666C11.0332 7.33366 11.3332 7.63366 11.3332 8.00033C11.3332 8.36699 11.0332 8.66699 10.6666 8.66699H8.66656V10.667C8.66656 11.0337 8.36657 11.3337 7.9999 11.3337C7.63323 11.3337 7.33323 11.0337 7.33323 10.667V8.66699H5.33323C4.96656 8.66699 4.66656 8.36699 4.66656 8.00033C4.66656 7.63366 4.96656 7.33366 5.33323 7.33366H7.33323V5.33366Z" fill="#9873FF"/>
</g>
<defs>
<clipPath id="clip0_68411_2854">
<rect width="16" height="16" fill="white"/>
</clipPath>
</defs>
</svg>
